<?xml version="1.0" encoding="UTF-8" standalone="no"?>
<!-- Created with Inkscape (http://www.inkscape.org/) -->

<svg
   width="40"
   height="40"
   viewBox="0 0 10.583333 10.583333"
   version="1.1"
   id="svg5146"
   xml:space="preserve"
   inkscape:version="1.2.2 (732a01da63, 2022-12-09)"
   sodipodi:docname="Fan.svg"
   inkscape:export-filename="Fan.png"
   inkscape:export-xdpi="96"
   inkscape:export-ydpi="96"
   xmlns:inkscape="http://www.inkscape.org/namespaces/inkscape"
   xmlns:sodipodi="http://sodipodi.sourceforge.net/DTD/sodipodi-0.dtd"
   xmlns="http://www.w3.org/2000/svg"
   xmlns:svg="http://www.w3.org/2000/svg"><sodipodi:namedview
     id="namedview5148"
     pagecolor="#ffffff"
     bordercolor="#000000"
     borderopacity="0.25"
     inkscape:showpageshadow="2"
     inkscape:pageopacity="0.0"
     inkscape:pagecheckerboard="0"
     inkscape:deskcolor="#d1d1d1"
     inkscape:document-units="mm"
     showgrid="false"
     inkscape:zoom="8.3553674"
     inkscape:cx="14.84076"
     inkscape:cy="13.643924"
     inkscape:window-width="1920"
     inkscape:window-height="1009"
     inkscape:window-x="1272"
     inkscape:window-y="-8"
     inkscape:window-maximized="1"
     inkscape:current-layer="layer1" /><defs
     id="defs5143" /><g
     inkscape:label="Capa 1"
     inkscape:groupmode="layer"
     id="layer1"><path
       style="fill:#ff484a;stroke-width:0.0197096;fill-opacity:1"
       d="M 7.523469,10.314908 C 6.8427761,10.22641 6.287691,9.7738105 6.068062,9.1282199 5.9604528,8.8119033 5.9582311,8.495109 6.0602231,8.0101971 6.1956822,7.3661656 6.1533527,7.0815105 5.8797576,6.7965886 5.8128742,6.7269363 5.751832,6.6699485 5.7441072,6.6699485 c -0.00771,0 -0.020104,0.082041 -0.02751,0.1823132 C 5.6519602,7.727595 5.2768525,8.5975816 4.7083348,9.1907307 4.2332233,9.686428 3.6655791,9.9601938 2.9902814,10.019324 2.4913578,10.063008 1.9598481,9.9554828 1.5298531,9.7238756 1.0757015,9.4792576 0.67157971,9.0674313 0.45519508,8.6287293 -0.00195899,7.7018868 0.33930129,6.6035756 1.2213488,6.1629485 1.6228612,5.9623727 1.9836445,5.9345779 2.5813074,6.0581769 3.0951566,6.1644428 3.3293169,6.1598531 3.57111,6.0387764 3.6749899,5.9867573 3.9117015,5.7792423 3.9117015,5.7401893 c 0,-0.00896 -0.045427,-0.016298 -0.100943,-0.016298 -0.2554519,0 -0.7768861,-0.106858 -1.1111909,-0.227717 C 2.1677591,5.3039117 1.7313788,5.0371777 1.3585119,4.6764634 0.40663045,3.7556048 0.28305422,2.2531256 1.0721687,1.1950162 1.2915188,0.90089366 1.6234094,0.61998595 1.9374917,0.4626188 2.8648236,-0.00201001 3.9706225,0.33182264 4.4144865,1.2104058 4.6166578,1.6105827 4.6461917,1.9823713 4.5225193,2.570364 4.3870602,3.2143956 4.4293838,3.4990506 4.7029849,3.7839725 c 0.066883,0.069652 0.1279256,0.1266404 0.1356493,0.1266404 0.00771,0 0.020104,-0.082041 0.02751,-0.1823133 0.064644,-0.8753335 0.4397492,-1.74532 1.008267,-2.3384695 C 6.3495223,0.89413376 6.9171665,0.62036712 7.5924641,0.56123806 8.6508847,0.46856277 9.6731097,1.0315203 10.131204,1.9593684 10.58469,2.8778772 10.239953,3.9787288 9.3613956,4.4176126 8.9598833,4.6181884 8.5991,4.6459831 8.0014371,4.5223842 7.487588,4.4161186 7.2534266,4.420708 7.0116346,4.5417848 6.9077547,4.593805 6.6710431,4.8013188 6.6710431,4.8403719 c 0,0.00897 0.045427,0.016299 0.1009429,0.016299 0.2554509,0 0.7768862,0.106858 1.1111909,0.2277168 C 8.4149854,5.2766499 8.8513657,5.5433838 9.2242325,5.904098 10.272767,6.9184595 10.301215,8.6079547 9.2872075,9.6439827 8.7901914,10.15179 8.1479529,10.396099 7.5234732,10.314908 Z M 5.4925631,5.8597337 C 5.5327608,5.8494755 5.6037135,5.8121959 5.6502403,5.7769001 6.0165594,5.4990025 5.9633538,4.9465462 5.5507551,4.7439282 5.3194356,4.6303318 5.0204806,4.6879516 4.8474438,4.8794826 4.7348271,5.0041367 4.6921712,5.1169892 4.6921712,5.2902809 c 0,0.1683336 0.040916,0.2814946 0.1444092,0.3993638 C 4.9962214,5.8714656 5.2196779,5.929406 5.49256,5.859734 Z"
       id="path5162" /></g></svg>
