<?xml version="1.0" encoding="UTF-8" standalone="no"?>
<!-- Created with Inkscape (http://www.inkscape.org/) -->

<svg
   width="70"
   height="70"
   viewBox="0 0 18.520833 18.520833"
   version="1.1"
   id="svg3183"
   xml:space="preserve"
   inkscape:version="1.2.2 (732a01da63, 2022-12-09)"
   sodipodi:docname="Temp.svg"
   inkscape:export-filename="Temp.png"
   inkscape:export-xdpi="96"
   inkscape:export-ydpi="96"
   xmlns:inkscape="http://www.inkscape.org/namespaces/inkscape"
   xmlns:sodipodi="http://sodipodi.sourceforge.net/DTD/sodipodi-0.dtd"
   xmlns="http://www.w3.org/2000/svg"
   xmlns:svg="http://www.w3.org/2000/svg"><sodipodi:namedview
     id="namedview3185"
     pagecolor="#ffffff"
     bordercolor="#000000"
     borderopacity="0.25"
     inkscape:showpageshadow="2"
     inkscape:pageopacity="0.0"
     inkscape:pagecheckerboard="0"
     inkscape:deskcolor="#d1d1d1"
     inkscape:document-units="mm"
     showgrid="false"
     inkscape:zoom="5.9081369"
     inkscape:cx="33.851619"
     inkscape:cy="48.577073"
     inkscape:window-width="1920"
     inkscape:window-height="1009"
     inkscape:window-x="1272"
     inkscape:window-y="-8"
     inkscape:window-maximized="1"
     inkscape:current-layer="layer1" /><defs
     id="defs3180" /><g
     inkscape:label="Capa 1"
     inkscape:groupmode="layer"
     id="layer1"><path
       style="fill:#52ff7b;stroke-width:0.0356732;stroke:none;fill-opacity:1"
       d="M 6.0710628,18.341618 C 5.2057007,18.148808 4.5491068,17.62046 4.1835792,16.822798 3.7778333,15.937372 3.9024622,14.910657 4.513297,14.106525 L 4.6976443,13.863841 V 7.8791843 c 0,-4.1155895 0.011982,-6.0507654 0.038379,-6.1963306 C 4.8361308,1.1306584 5.258824,0.58104712 5.7718115,0.33606197 6.2152375,0.1242974 6.6015984,0.0850064 7.0678732,0.20425947 7.4128724,0.29249577 7.6668035,0.43582576 7.9205436,0.68554281 8.1433258,0.90479416 8.2716474,1.1070964 8.4048612,1.4490793 l 0.091989,0.2361411 0.017833,6.1179549 0.017833,6.1179547 0.1678041,0.204491 c 0.1944372,0.236947 0.3883284,0.623386 0.4791051,0.954887 0.079148,0.289049 0.087902,0.96503 0.016158,1.248563 -0.2506961,0.990806 -0.9587942,1.713076 -1.9473013,1.986273 -0.2818271,0.07789 -0.8851223,0.09135 -1.1772159,0.02628 z M 7.1694122,17.544547 C 7.9164153,17.28754 8.4088699,16.678078 8.4974278,15.900992 8.5522329,15.420111 8.3390572,14.832959 7.9542294,14.40483 L 7.7477034,14.175066 7.7298705,7.9479798 7.7120377,1.7208939 7.6295733,1.5534858 C 7.3460556,0.9778922 6.6758454,0.7424344 6.1116216,1.0202006 5.8462383,1.1508484 5.6890903,1.3136673 5.5574109,1.5944096 l -0.092793,0.1978306 -0.00949,6.1925476 -0.00949,6.1925482 -0.2131846,0.246466 c -0.3620392,0.418558 -0.5330346,0.83656 -0.5342518,1.305987 -0.00201,0.766924 0.4951201,1.493788 1.2159222,1.777901 0.3853414,0.151887 0.8788613,0.166378 1.2553186,0.03686 z M 6.2494292,16.820072 C 5.8415952,16.67349 5.5533161,16.333115 5.4888555,15.92205 5.4122758,15.433724 5.6220413,14.989629 6.040939,14.753217 l 0.1906529,-0.1076 V 11.310834 7.97605 L 6.3358644,7.8717776 c 0.1931776,-0.1931788 0.5203194,-0.1298337 0.606519,0.1174411 0.026275,0.075351 0.038346,1.1461385 0.038346,3.4005703 v 3.29058 l 0.094502,0.02372 c 0.05198,0.01304 0.1931475,0.123142 0.3137141,0.244661 0.1656657,0.166971 0.2340804,0.267694 0.2800684,0.412324 0.242003,0.761073 -0.3028022,1.510296 -1.0909438,1.500281 -0.1218909,-0.0016 -0.2697785,-0.02013 -0.3286391,-0.04128 z m 0.6110135,-0.816353 c 0.1707565,-0.160417 0.125118,-0.504063 -0.079315,-0.597208 -0.3437318,-0.156615 -0.6656622,0.164911 -0.5091217,0.508481 0.090861,0.199424 0.4180826,0.248764 0.5884349,0.08873 z M 1.1798285,13.059136 c -0.041439,-0.0086 -0.1198832,-0.06215 -0.1743119,-0.118968 -0.14459126,-0.150921 -0.13905605,-0.359097 0.013612,-0.511763 l 0.1125702,-0.11257 h 1.282863 1.282863 l 0.1125703,0.11257 c 0.1592159,0.159216 0.1592349,0.364744 3.57e-5,0.523998 l -0.1125133,0.11257 -1.2211671,0.0049 c -0.671643,0.0027 -1.2550753,-0.0021 -1.2965185,-0.01072 z M 11.449672,12.243097 c -0.301699,-0.08126 -0.600007,-0.252055 -0.825348,-0.472552 -0.267039,-0.261297 -0.415063,-0.494307 -0.514753,-0.810291 -0.07697,-0.243959 -0.07878,-0.291638 -0.07878,-2.0690461 0,-1.7789422 0.0018,-1.82491 0.07904,-2.0705277 0.189123,-0.6010987 0.674097,-1.0855304 1.276549,-1.275119 0.220774,-0.069477 0.32826,-0.078584 0.927504,-0.078584 0.599244,0 0.70673,0.00911 0.927503,0.078584 0.76586,0.2410127 1.337746,0.9946687 1.337746,1.7629396 0,0.1800124 -0.01282,0.2166116 -0.109766,0.3135644 -0.147723,0.1477234 -0.341211,0.152257 -0.49779,0.011658 -0.09217,-0.082755 -0.114683,-0.1371668 -0.143949,-0.3478133 -0.06643,-0.4781091 -0.328655,-0.8281856 -0.733944,-0.979824 -0.167526,-0.062677 -0.277308,-0.072493 -0.807895,-0.072191 -0.582636,3.16e-4 -0.624056,0.00502 -0.810228,0.091286 -0.260821,0.1208815 -0.449872,0.3077456 -0.574976,0.5683241 l -0.102765,0.2140388 -2.8e-5,1.7555675 c -2.6e-5,1.6778557 0.0032,1.7641487 0.0725,1.9494357 0.0969,0.259005 0.311893,0.495585 0.561932,0.618369 0.201068,0.09873 0.212867,0.100107 0.863807,0.100107 0.637505,0 0.666734,-0.0032 0.859242,-0.09346 0.355478,-0.166703 0.607664,-0.506326 0.658873,-0.887311 0.05527,-0.411229 0.15696,-0.519438 0.47341,-0.503777 0.04566,0.0022 0.129933,0.05103 0.187285,0.108381 0.09078,0.09078 0.104273,0.1305 0.104273,0.306991 0,0.462399 -0.199994,0.921019 -0.55756,1.278586 -0.254394,0.254395 -0.533761,0.417787 -0.856681,0.501046 -0.290043,0.07478 -1.439532,0.07587 -1.715211,0.0016 z M 2.6201286,11.493019 c -0.2292498,-0.12439 -0.2594797,-0.433206 -0.058925,-0.601962 0.1055343,-0.08881 0.1228569,-0.09133 0.6258113,-0.09133 h 0.5172687 l 0.1042725,0.104272 c 0.1931777,0.193178 0.1298336,0.520319 -0.1174411,0.606519 -0.1707442,0.05952 -0.9525812,0.04674 -1.0709881,-0.0175 z M 2.5612031,9.9235802 C 2.3576496,9.7523011 2.3917151,9.441784 2.6274315,9.3198908 2.753138,9.2548797 3.517381,9.2435569 3.6911179,9.3041238 3.9383926,9.3903289 4.0017366,9.7174651 3.808559,9.9106428 L 3.7042865,10.014915 H 3.1870177 c -0.5029544,0 -0.5202713,-0.0026 -0.6258112,-0.09133 z M 1.1798296,8.4929659 C 1.1383908,8.4843677 1.0599464,8.4308134 1.0055177,8.3739984 0.86092645,8.2230769 0.86646167,8.0149004 1.0191296,7.8622358 L 1.1316999,7.7496656 h 1.282863 1.2828629 l 0.1125703,0.1125702 c 0.1592159,0.159216 0.1592349,0.3647426 3.57e-5,0.5239966 l -0.1125133,0.1125702 -1.2211671,0.00491 c -0.6716429,0.00268 -1.2550752,-0.00212 -1.2965185,-0.01072 z M 16.059563,7.6445254 C 15.316999,7.3349463 15.129264,6.3695996 15.700526,5.7983369 15.880291,5.6185728 16.05403,5.5303384 16.306054,5.4908175 c 0.782287,-0.1226748 1.421567,0.5166051 1.298892,1.2988925 -0.05703,0.3636439 -0.278524,0.6606518 -0.622551,0.8347783 -0.258871,0.1310251 -0.636926,0.1392336 -0.922832,0.020033 z m 0.605028,-0.7170625 c 0.224578,-0.1065727 0.26914,-0.4028593 0.08786,-0.5841447 -0.183912,-0.1839117 -0.477693,-0.1364788 -0.587465,0.094848 -0.07226,0.1522738 -0.04588,0.3267878 0.06458,0.4272592 0.141648,0.1288398 0.258993,0.1455728 0.435036,0.062041 z M 2.6201297,6.9268421 C 2.3908799,6.8024532 2.36065,6.4936356 2.5612043,6.3248813 2.6667385,6.2360744 2.6840611,6.2335507 3.1870155,6.2335507 H 3.7042842 L 3.8085567,6.3378232 C 4.0017344,6.531002 3.9383904,6.8581426 3.6911156,6.9443422 3.5203714,7.0038594 2.7385345,6.991085 2.6201275,6.9268443 Z M 2.5612043,5.3574093 C 2.3576507,5.1861306 2.3917163,4.8756127 2.6274326,4.7537194 2.7531391,4.6887139 3.5173822,4.6773821 3.691119,4.7379502 3.9383937,4.8241508 4.0017377,5.151291 3.8085601,5.3444696 L 3.7042876,5.4487454 H 3.1870189 c -0.5029545,0 -0.5202714,-0.00252 -0.6258113,-0.091333 z M 1.1798285,3.9267945 C 1.1383897,3.918174 1.0599453,3.8646386 1.0055166,3.8078269 0.86092534,3.6569057 0.86646055,3.448729 1.0191285,3.2960643 L 1.1316988,3.183494 h 1.2828629 1.282863 L 3.809995,3.2960643 c 0.1592159,0.1592164 0.1592349,0.3647435 3.57e-5,0.5239972 l -0.1125133,0.1125702 -1.2211671,0.00492 c -0.671643,0.0027 -1.2550753,-0.00213 -1.2965185,-0.010753 z"
       id="path3199" /></g></svg>
